<?xml version="1.0" encoding="UTF-8"?>
<svg id="Layer_1" data-name="Layer 1" xmlns="http://www.w3.org/2000/svg" width="42mm" height="29mm" viewBox="0 0 1190.55 841.89">
  <g id="Layer-9">
    <path d="M1156.7,38.23c-7.19,8.33-18.86,12.7-27.67,19.26-24.52,18.26-47.14,33.49-73.98,48.49-53.06,29.63-105.82,60.42-160.49,87.03-36.37,17.7-71.87,37.01-107.91,55.2-20.77,10.48-39.58,23.47-61.14,32.43-62.69,26.05-123.25,56.87-184.18,86.53-13.9,6.77-52.74,24.72-55.04,42.83-3.6,28.39,35.53,27.52,53.91,33.02,19.17,5.74,37.41,14.9,56.36,22.02,35,13.14,69.32,25.86,102.95,42.57,25.66,12.75,53.76,20.68,77.82,36.75,68.7,45.9,128.07,105.33,174.51,173.93,2.8,4.14,4.1,9.15,6.33,13.63,8.63,17.32,19.47,33.77,28.3,51.05" fill-rule="evenodd" stroke="red" stroke-linecap="round" stroke-linejoin="round" stroke-width="10.55"/>
    <path d="M313.28,50.41c-8-3.35,8.74,16.63,9.84,17.71,7.56,7.44,17.62,12.45,26.04,18.74,28.16,21.06,57.16,41.79,86.05,62.15,25.26,17.8,46.65,39.73,70.77,58.9,8.77,6.97,18.58,12.56,27.18,19.74,11.06,9.23,21.01,19.91,32.14,29.14,13.99,11.59,27.88,22.55,41.15,35,15.49,14.52,32.28,26.92,47.03,42.16,25.16,26.01,57.09,48.05,50.2,87.4-1.94,11.08-29.53,19.21-37.99,25.4-5.07,3.71-8.52,7.83-14.29,10.74-7.63,3.85-15.72,6.45-22.85,11.35-11.33,7.77-22.36,16.45-33.79,24.02-9.22,6.12-20.23,10.2-30.11,15.1-12.65,6.28-24.76,13.45-37.3,19.93-51.5,26.64-104.87,49.72-157.05,74.88-26.65,12.85-52.46,27.76-78.79,41.25-54.71,28.03-107.27,56.49-156.83,93.27-18.12,13.45-35.16,28.26-54.12,40.6-17.13,11.15-36.46,20.22-47.85,37.99" fill-rule="evenodd" stroke="red" stroke-linecap="round" stroke-linejoin="round" stroke-width="10.55"/>
  </g>
</svg>